<svg width="12" height="20" viewBox="0 0 12 20" fill="none"
    xmlns="http://www.w3.org/2000/svg">
    <path d="M11 1H5C3.939 1 2.922 1.4214 2.172 2.1716C1.421 2.9217 1 3.9391 1 5V19C1 18.2044 1.31603 17.4413 1.87903 16.8787C2.44103 16.3161 3.204 16 4 16H11V1Z" stroke="#777777" stroke-width="2" stroke-linecap="round" stroke-linejoin="round"/>
    <path d="M1 1H7C8.061 1 9.078 1.4214 9.828 2.1716C10.579 2.9217 11 3.9391 11 5V19C11 18.2044 10.684 17.4413 10.121 16.8787C9.55897 16.3161 8.796 16 8 16H1V1Z" stroke="#777777" stroke-width="2" stroke-linecap="round" stroke-linejoin="round"/>

</svg>
